<svg width="629" height="87" viewBox="0 0 629 87" fill="none" xmlns="http://www.w3.org/2000/svg">
<g clip-path="url(#clip0_166_3194)">
<path d="M306.03 1.89653C266.886 -2.40585 190.634 5.9608 118.338 22.4891L101.272 26.3961C53.301 37.3963 27.3871 45.0652 9.0347 53.6948C1.87193 57.0634 1.24594 57.5127 1.31516 59.2353C1.42049 61.7488 2.56112 61.5563 15.7536 56.8005C29.405 51.879 41.5606 48.6844 74.8103 41.2805C185.939 16.5345 237.559 9.30042 294.851 10.4474C306.078 10.6711 323.818 13.9589 323.697 15.7933C323.536 18.2427 311.849 24.7169 284.949 37.2555C251.856 52.6803 231.634 63.2064 229.722 66.0015C226.452 70.7801 229.418 75.126 236.406 75.803C240.4 76.1902 241.316 76.1281 259.87 74.188C313.141 68.6268 347.064 66.9663 392.841 67.6806C462.553 68.7697 506.784 72.2977 589.648 83.3829C619.424 87.3664 620.969 87.4823 626.601 86.1407L626.701 86.1179C628.508 85.6976 629.003 82.3394 627.301 81.2834C622.921 78.5712 619.938 77.9625 594.124 74.5317C507.585 63.0284 461.897 59.2933 395.403 58.2953C360.434 57.7694 344.817 58.0552 319.22 59.6908C301.721 60.8089 255.461 64.8545 248.953 65.8338C245.403 66.3701 261.191 58.3285 288.836 45.5228C323.806 29.3216 330.871 24.5099 331.427 16.5263C332.055 7.52399 326.117 4.10362 306.03 1.89653Z" fill="#8157FC" fill-opacity="0.5"/>
</g>
<defs>
<clipPath id="clip0_166_3194">
<rect width="629" height="86.9585" fill="white"/>
</clipPath>
</defs>
</svg>
